<?xml version="1.0" encoding="UTF-8"?>
<svg width="518px" height="506px" viewBox="0 0 518 506" version="1.1" xmlns="http://www.w3.org/2000/svg" xmlns:xlink="http://www.w3.org/1999/xlink">
    <!-- Generator: Sketch 52.5 (67469) - http://www.bohemiancoding.com/sketch -->
    <title>hand</title>
    <desc>Created with Sketch.</desc>
    <g id="Page-1" stroke="none" stroke-width="1" fill="none" fill-rule="evenodd">
        <g id="moderne.st" transform="translate(-1.000000, -903.000000)">
            <g id="hand" transform="translate(1.000000, 903.000000)">
                <path d="M442.924871,482.288707 C412.042971,525.612237 326.062428,472.113232 339.392745,398.285495 C343.915079,373.135329 358.244632,350.812384 379.228101,336.228956 C400.211571,321.645529 426.129514,315.996623 451.278536,320.525314 C503.622247,329.967621 541.635867,380.756128 529.038717,432.411106 C519.063197,472.824182 492.335912,412.97106 442.924871,482.288707 Z" id="Path" fill="#F2F3B9" transform="translate(434.732696, 408.411627) rotate(-77.000000) translate(-434.732696, -408.411627) "></path>
                <path d="M332.951263,265.745948 C343.072364,258.747028 352.576681,252.391853 354.808597,251.609729 C358.686968,250.215948 362.223936,248.01197 365.184027,245.144525 C369.102521,240.352426 372.709133,235.313559 375.981584,230.05905 C376.825837,228.059502 379.580769,229.125928 382.313484,230.281222 C385.046199,231.436516 383.002217,238.190543 381.691403,241.278733 C380.380588,244.366923 374.692986,254.009186 374.692986,254.009186 C376.398042,253.269801 378.009015,252.330066 379.4919,251.209819 C381.86914,249.388009 392.533394,242.234072 395.777104,237.435158 C399.020814,232.636244 399.354072,224.238145 401.375837,219.461448 C403.397602,214.684751 407.352262,219.572534 410.573756,223.349457 C413.795249,227.12638 413.017647,238.457149 409.174072,248.499321 C408.373715,250.861313 407.340773,253.129131 406.094886,255.271105 C420.878716,252.340189 435.457014,242.167421 435.457014,242.167421 C435.457014,242.167421 447.676471,229.947964 448.920633,228.837104 C457.496471,221.261041 462.25095,220.883348 464.47267,226.993077 C466.694389,233.102805 460.940136,241.389819 455.830181,248.054977 C447.638355,258.032306 436.942398,265.653654 424.837195,270.138869 C418.127602,272.849367 401.575792,279.514525 401.575792,279.514525 C414.447115,279.036477 427.261205,277.550786 439.900452,275.071086 C458.229638,271.183077 472.115385,258.96362 477.669683,255.631041 C483.223982,252.298462 485.445701,258.96362 485.445701,267.295068 C485.445701,275.626516 475.447964,282.291674 469.893665,286.735113 C464.339367,291.178552 451.56448,296.732851 428.236425,299.51 C404.908371,302.287149 394.044163,302.087195 383.802036,306.730588 C378.825385,308.996742 377.136878,311.729457 373.804299,326.170633 C370.471719,340.61181 387.690045,364.495294 411.573529,364.495294 C435.457014,364.495294 432.679864,370.605023 432.679864,372.826742 C432.679864,375.048462 424.348416,379.914027 417.127828,381.71362 C409.90724,383.513213 393.799774,384.490769 342.144796,386.157059 C290.489819,387.823348 234.946833,369.494163 194.400452,361.718145 C153.854072,353.942127 0.555429864,259.51905 0.555429864,259.51905 L0,0 C0,0 88.4244344,111.352579 102.199095,124.971719 C120.106154,142.678824 271.982896,286.04638 311.529502,272.405023 C319.327771,269.707164 326.466165,267.519019 332.951263,265.745948 Z" id="Path-2" fill="#FFFFFF"></path>
                <path d="M464.47267,267.11733 L470.026968,272.293937 C470.026968,272.293937 482.979593,259.341312 480.024706,259.51905 C477.069819,259.696787 464.47267,267.11733 464.47267,267.11733 Z" id="Path" stroke="#5E576C" stroke-width="1.2"></path>
                <path d="M434.479457,275.759593 L436.545656,282.780226" id="Path" stroke="#5E576C" stroke-width="1.2"></path>
                <path d="M428.969593,276.714932 L431.36905,284.135475" id="Path" stroke="#5E576C" stroke-width="1.2"></path>
                <path d="M427.947602,249.365566 L431.613439,255.719683" id="Path" stroke="#5E576C" stroke-width="1.2"></path>
                <path d="M422.793213,250.276471 L426.881176,258.230226" id="Path" stroke="#5E576C" stroke-width="1.2"></path>
                <path d="M450.075928,232.769548 L454.674887,234.746878 C454.674887,234.746878 460.784615,229.170362 459.984796,226.304344 C459.184977,223.438326 450.075928,232.769548 450.075928,232.769548 Z" id="Path" stroke="#5E576C" stroke-width="1.2"></path>
                <path d="M401.553801,228.926199 L405.241855,227.948643 C405.241855,227.948643 406.308281,221.727828 404.486471,220.394796 C402.664661,219.061765 401.553801,228.926199 401.553801,228.926199 Z" id="Path" stroke="#5E576C" stroke-width="1.2"></path>
                <path d="M374.226425,235.946606 L377.159095,236.524253 C377.159095,236.524253 380.025113,232.480724 379.203077,230.92552 C378.381041,229.370317 374.226425,235.946606 374.226425,235.946606 Z" id="Path" fill="#5E576C"></path>
                <path d="M394.888416,242.345158 C395.9283,242.545135 396.984343,242.649251 398.043258,242.656199 C398.350013,242.656199 398.598688,242.407525 398.598688,242.100769 C398.598688,241.794014 398.350013,241.545339 398.043258,241.545339 C397.089153,241.543891 396.137206,241.454646 395.199457,241.278733 C394.510724,241.14543 394.199683,242.211855 394.910633,242.345158 L394.888416,242.345158 Z" id="Path" fill="#5E576C"></path>
                <path d="M396.976833,238.834842 L399.198552,239.145882 C399.887285,239.145882 400.198326,238.168326 399.487376,238.079457 L397.265656,237.768416 C396.576923,237.768416 396.265882,238.745973 396.976833,238.834842 Z" id="Path" fill="#5E576C"></path>
                <path d="M370.62724,244.0781 C371.148111,244.626169 371.756214,245.084123 372.426833,245.433348 C373.048914,245.766606 373.626561,244.811267 372.982262,244.478009 C372.393351,244.168674 371.860216,243.763191 371.404842,243.278281 C370.916063,242.767285 370.116244,243.544887 370.62724,244.055882 L370.62724,244.0781 Z" id="Path" fill="#5E576C"></path>
                <path d="M420.70457,376.381267 C420.374641,375.596049 420.267036,374.735212 420.393529,373.892941 C420.815656,372.493258 422.615249,372.604344 423.615023,372.471041 L428.858281,371.804525 L428.302851,371.249095 C428.014027,374.226199 423.126244,376.470136 420.593484,376.825611 C419.882534,376.825611 420.193575,378.003122 420.882308,377.892036 C424.081584,377.447692 429.058235,374.870498 429.41371,371.226878 C429.41371,370.920122 429.165036,370.671448 428.858281,370.671448 L423.615023,371.337964 C422.597258,371.361967 421.590808,371.557249 420.637919,371.915611 C418.838326,372.87095 419.149367,375.003801 419.638145,376.647873 C419.74062,376.913179 420.026947,377.058211 420.301466,376.983862 C420.575985,376.909513 420.749988,376.639809 420.70457,376.35905 L420.70457,376.381267 Z" id="Path" fill="#5E576C"></path>
                <path d="M397.532262,374.959593 C397.839368,376.309746 398.017902,377.685952 398.065475,379.069774 C398.065475,379.780724 399.198552,379.780724 399.176335,379.069774 C399.125585,377.573623 398.932159,376.085731 398.598688,374.626335 C398.443167,373.937602 397.376742,374.226425 397.532262,374.915158 L397.532262,374.959593 Z" id="Path" fill="#5E576C"></path>
                <path d="M393.044389,375.892715 L393.733122,380.158416 C393.844208,380.869367 394.910633,380.558326 394.799548,379.869593 L394.110814,375.603891 C393.999729,374.892941 392.933303,375.203982 393.044389,375.892715 Z" id="Path" fill="#5E576C"></path>
                <path d="M428.791855,276.159729 C408.79638,280.181041 388.223258,279.047964 368.027828,280.26991 C367.316878,280.26991 367.316878,281.425204 368.027828,281.380769 C388.334344,280.158824 409.040769,281.247466 429.102896,277.226154 C429.813846,277.092851 429.502805,276.004208 428.814072,276.159729 L428.791855,276.159729 Z" id="Path" fill="#5E576C"></path>
                <path d="M422.504389,249.765475 C415.283801,254.208914 405.797059,255.253122 397.754434,257.319321 C393.310995,258.474615 388.756471,259.718778 384.201946,260.762986 C383.446561,260.940724 383.757602,262.118235 384.535204,261.940498 C389.956199,260.696335 395.310543,259.163348 400.731538,257.830317 C408.129864,255.98629 416.527964,254.853213 423.126471,250.8319 C423.792986,250.431991 423.126471,249.365566 422.504389,249.787692 L422.504389,249.765475 Z" id="Path" fill="#5E576C"></path>
                <path d="M377.62543,244.589321 C375.936923,247.277602 374.69276,250.254706 373.004253,252.942986 C372.626561,253.542851 373.5819,254.098281 373.959593,253.498416 C375.6481,250.810136 376.892262,247.833032 378.580769,245.144751 C378.958462,244.544887 378.003122,243.989457 377.62543,244.589321 Z" id="Path" fill="#5E576C"></path>
                <path d="M384.495989,306.031547 C367.988613,313.252135 371.832188,338.801909 380.05255,350.35485 C380.474677,350.932497 381.430016,350.35485 381.007889,349.79942 C373.054134,338.690823 369.099473,313.985303 385.006984,307.009103 C385.651283,306.72028 385.006984,305.764941 384.451554,306.053764 L384.495989,306.031547 Z" id="Path" fill="#5E576C"></path>
                <path d="M395.777104,237.435158 C393.088824,242.656199 380.647195,250.365566 380.647195,250.365566 C380.647195,250.365566 361.784796,264.762308 356.208281,264.940045" id="Path" stroke="#5E576C" stroke-width="1.2"></path>
            </g>
        </g>
    </g>
</svg>