<?xml version="1.0" encoding="UTF-8"?>
<svg width="487px" height="529px" viewBox="0 0 487 529" version="1.1" xmlns="http://www.w3.org/2000/svg" xmlns:xlink="http://www.w3.org/1999/xlink">
    <!-- Generator: Sketch 52.5 (67469) - http://www.bohemiancoding.com/sketch -->
    <title>lion</title>
    <desc>Created with Sketch.</desc>
    <g id="Page-1" stroke="none" stroke-width="1" fill="none" fill-rule="evenodd">
        <g id="moderne.st" transform="translate(-100.000000, -2434.000000)">
            <g id="lion" transform="translate(102.000000, 2434.000000)">
                <path d="M305.951228,267.917906 C308.314184,262.452664 352.016791,179.275643 355.640957,138.605254 C355.872904,136.015184 373.46702,179.232153 366.815468,207.894472 C352.995316,267.463677 303.58344,273.337241 305.951228,267.917906" id="Fill-1" fill="#FFFFFD"></path>
                <path d="M188.295585,130.86017 C188.295585,130.86017 185.792494,139.512262 185.149809,142.443004 C181.226046,160.343967 192.20002,174.951771 192.20002,174.951771 C192.20002,174.951771 179.851279,217.323102 183.746049,230.411172 C188.276256,245.637501 236.557393,265.041284 236.557393,265.041284 L327.56986,280.313519 L126.515639,432.151569 C126.515639,432.151569 101.743258,451.852534 73.7139593,456.65093 C54.119303,460.004491 29.9485333,448.257362 24.2271836,450.610653 C6.1015224,458.064354 0.0805749678,486.451237 0.0805749678,486.451237 C0.0805749678,486.451237 218.100724,559.739117 337.094168,422.020817 C358.742518,396.963335 411.420976,365.846248 446.56572,371.495114 C484.005768,377.513645 470.359576,280.313519 470.359576,280.313519 L424.547704,89.5011903 C424.547704,89.5011903 352.431637,63.9653181 349.17472,62.9022295 C345.917803,61.8367247 271.912338,53.6751034 263.30132,60.0995413 C254.687886,66.5263953 231.041412,87.4885702 222.932945,96.3363669 C214.822062,105.184164 188.295585,130.86017 188.295585,130.86017" id="Fill-3" fill="#FFFFFF"></path>
                <path d="M263.999576,81.5164282 C268.015152,87.0807307 264.376489,104.496055 268.752065,104.017666 C273.043078,103.500618 287.846587,74.8600437 282.910473,65.0023128 C277.945366,55.1397496 243.105052,43.6245668 237.183165,43.2234925 C213.611591,41.8004034 206.63628,60.7088843 203.857753,75.8023268 C202.649698,82.6181746 180.158125,131.636225 181.264703,130.145485 L227.753086,77.5491747 C235.80115,69.4866139 258.191246,73.5263507 263.999576,81.5164282" id="Fill-5" fill="#FF9298"></path>
                <path d="M233.972638,206.656215 C233.607805,209.29944 236.224453,206.909907 238.333717,203.918762 C240.421237,200.905872 248.691583,187.341828 261.948781,164.379113 C275.254302,141.370493 283.290286,121.700937 282.497801,121.210466 C281.714982,120.678922 279.724107,122.592482 277.634171,124.184698 C275.479,125.738258 271.134834,129.964035 267.457513,134.593303 C263.828515,139.162168 260.798713,138.765925 256.208103,139.679215 C251.586083,140.640827 243.204596,149.800302 238.333717,153.649166 C233.470087,157.423131 227.031152,161.286492 221.00054,162.277097 C214.554357,163.345018 213.481604,160.448101 210.727238,160.940988 C207.987369,161.472532 208.081597,165.980994 209.006968,169.138851 C209.958915,172.303956 209.180928,173.685971 208.649383,179.230945 C208.139584,184.802495 212.070596,190.260489 215.368587,193.415929 C218.618255,196.556873 217.67114,201.439833 219.775572,203.116613 C221.942823,204.807891 222.703898,193.527071 222.703898,186.549343 C222.703898,179.622354 221.114097,172.794426 221.389534,171.745834 C221.677051,170.675497 227.173703,169.247576 229.761357,167.491064 C232.426327,165.833612 238.877342,161.221257 241.977212,159.677362 C245.159229,158.060984 245.193055,159.266623 244.400571,161.095619 C243.608086,162.927031 241.84191,165.734551 238.333717,168.696703 C234.765122,171.745834 226.366722,174.079797 224.520813,174.19577 C222.667656,174.352817 222.79571,175.986108 224.670612,177.411613 C226.538266,178.839535 231.167533,178.839535 235.32566,177.822352 C239.500699,176.698861 238.969154,182.130277 238.447274,187.897533 C237.932643,193.686534 234.393041,204.073393 233.972638,206.656215 Z" id="Stroke-7" stroke="#ABD8E1" stroke-width="2.4"></path>
                <path d="M289.956093,260.544661 C274.323858,262.057146 232.774005,291.282419 200.047788,281.796769 C185.770991,277.657972 175.659568,285.962144 167.338484,296.786319 C161.165321,304.812638 171.358892,296.824977 170.358622,297.994374 C160.894717,309.067409 154.893099,332.634151 161.09767,324.57159 C171.163187,311.483519 187.046697,301.654782 197.974765,301.113573 C232.56622,299.402967 255.821284,278.846698 287.74052,261.752716" id="Fill-9" fill="#F0F1AC"></path>
                <path d="M225.327553,230.213293 C230.125948,224.334896 221.81936,223.436103 218.7509,224.334896 C215.667943,225.211944 213.925927,223.684962 210.84297,222.803082 C207.815583,221.930866 203.872491,222.803082 201.884032,225.023487 C199.926983,227.173826 201.884032,228.925506 194.659862,229.846044 C187.413946,230.67477 190.750595,221.930866 192.270328,212.512867 C193.806975,203.097284 199.73611,178.155775 198.634363,174.906107 C197.496375,171.569458 197.262013,172.888654 194.659862,169.82261 C192.014221,166.717908 191.847509,161.257498 191.576905,152.310641 C191.359455,143.33479 192.014221,126.702286 192.014221,126.702286 C192.014221,126.702286 186.548979,134.786591 184.120788,148.971576 C181.731254,163.260454 191.576905,171.163552 191.847509,173.32597 C192.014221,175.531879 191.576905,180.750678 187.249651,205.93863 C182.828168,231.128999 188.295827,235.951555 193.806975,240.356125 C197.696913,243.497068 211.335857,250.863789 218.813719,254.823795 C221.932917,253.171175 225.175338,251.835066 228.480577,250.660836 C221.647816,246.824053 215.979621,242.264852 215.013177,239.848742 C212.85559,234.385916 220.541238,236.183502 225.327553,230.213293 Z" id="Stroke-11" stroke="#ABD8E1" stroke-width="2.4"></path>
                <path d="M18.1743435,498.956058 C16.4009183,503.268816 10.621582,496.419142 12.4312488,491.589338 C12.8903098,490.241148 20.0347486,474.664483 35.6404065,477.960058 C39.9700765,478.890261 23.8232099,485.085168 18.1743435,498.956058 Z M321.268161,396.723174 C290.238053,436.402957 237.979999,434.84215 202.284382,449.135859 C160.608891,465.821519 132.21476,495.162765 124.748979,502.597137 C111.953257,515.296214 95.7411558,512.034465 87.0262451,511.495672 C78.3040861,510.971376 69.796961,506.528149 66.3032651,505.904792 C62.7709116,505.187208 54.4280819,506.10533 54.4280819,506.10533 C54.4280819,506.10533 54.6890218,502.125996 57.7139922,500.164114 C60.7607076,498.202232 66.9290378,497.55713 77.8571057,495.365718 C88.8576569,493.179138 97.1835738,487.240339 101.532573,484.418321 C105.925062,481.58664 103.071635,480.66127 100.189215,481.352277 C97.4034398,482.016708 88.5943009,485.510403 73.2906568,487.6994 C57.9700999,489.92947 53.1475433,488.781817 47.215992,492.758735 C41.3037695,496.682498 42.6060531,506.789089 41.3037695,509.594193 C39.9700765,512.430707 38.8900751,513.11205 36.9306095,511.333793 C34.9638955,509.594193 34.1230891,502.817003 35.6404065,497.085989 C37.1843011,491.412961 46.1553195,486.851345 54.4280819,484.838725 C62.7709116,482.888923 80.7129483,481.741271 99.9910942,471.49213 C157.199759,441.155446 182.370799,418.313537 233.007643,379.264359 C286.879659,337.736251 334.863615,314.867765 372.649167,296.543983 C395.92356,285.23417 465.053314,276.814025 465.053314,276.814025 C465.053314,276.814025 455.181086,270.106902 444.861878,268.976162 C438.761199,268.304483 432.701594,268.096698 426.803868,268.258577 C427.758232,267.739113 426.216753,267.835758 422.732722,268.415624 C415.286269,268.80945 408.07418,269.737237 401.301822,270.894554 L421.855674,268.565423 C406.184781,271.28838 357.727268,282.18987 310.767744,293.120354 C297.486385,301.690299 284.490126,311.183197 271.394807,320.606028 C275.451457,319.260254 278.819515,318.262401 280.653343,317.808172 C286.729861,316.273942 286.299793,317.114748 285.248785,318.015957 C284.166367,318.893005 283.458447,319.115288 276.647431,322.604151 C269.899235,326.11476 246.025647,340.328738 214.536478,363.552392 C182.440866,387.336584 156.206738,414.858499 130.414758,434.035169 C104.791906,453.07412 85.3373839,461.612654 75.2766996,463.381247 C65.2135993,465.125679 53.3746577,459.24245 38.450343,458.54661 C23.5888472,457.93775 13.5233307,467.983938 11.9818522,470.197095 C10.4234609,472.359514 10.4234609,474.340724 11.7305767,474.116026 C13.0691019,473.871999 15.475548,471.2626 17.6766247,471.2626 C19.8342114,471.2626 19.6602514,472.586628 19.6602514,472.586628 C19.6602514,472.586628 18.5899145,473.033609 14.3810499,475.152538 C10.1963465,477.423681 3.87338527,483.565434 0.831502119,493.026923 C-2.20554881,502.362774 4.93889001,516.35447 4.93889001,516.35447 C4.93889001,516.35447 9.62372832,516.35447 15.9539379,519.014608 C22.2793153,521.631256 26.4156965,523.363607 29.4986535,525.149113 C32.5574494,526.888712 35.6404065,527.304283 41.9585355,525.637167 C48.2766645,523.813004 61.251178,523.813004 70.1835386,524.284145 C79.1714698,524.699716 114.137421,533.231002 136.493692,518.632863 C206.597139,457.06795 279.986496,462.34232 306.346262,453.07412 C360.392238,433.448054 351.503368,360.454939 446.565236,371.494148 C442.399862,361.063799 368.048893,337.083902 321.268161,396.723174 Z" id="Stroke-13" stroke="#ABD8E1" stroke-width="2.4"></path>
                <path d="M139.205293,203.714117 C131.275618,189.256112 128.888501,184.083219 125.481785,169.680784 C122.065405,155.179289 115.882578,143.234039 126.182457,134.296846 C136.593477,125.400727 144.612548,112.469703 147.900875,98.7800211 C151.20853,85.0734261 162.209081,74.2927409 174.562654,59.2838624 C186.884818,44.3063932 189.322674,42.1802159 189.322674,42.1802159 C186.416093,46.1281405 180.648837,62.0358122 177.92588,70.4390447 C175.125608,78.8471093 161.745188,97.1998848 155.71216,106.956139 C149.703293,116.709977 135.868644,135.582217 134.658173,153.219823 C133.544346,170.804276 148.043425,191.814773 150.184099,199.440018 C152.319941,207.087008 147.292015,229.003546 152.588129,244.517392 C157.797263,260.038486 172.50896,274.566559 175.147353,276.482534 C177.778497,278.299449 177.196215,276.482534 176.307086,275.366291 C175.415541,274.368437 173.690438,272.768972 170.170165,265.27903 C166.647476,257.827745 168.232445,249.496996 170.684797,238.233088 C173.168559,226.942604 174.526413,217.841116 173.407753,206.538551 C172.368826,195.243234 163.318076,176.093142 160.558878,164.379838 C157.797263,152.714856 164.898212,141.238331 176.592187,121.327165 C188.259585,101.353179 189.999184,84.5056401 191.576905,72.1641476 C193.14496,59.8105745 199.895573,42.2092093 218.492376,34.4341656 C229.224739,30.005435 259.194174,36.1109463 274.821577,45.9179389 C285.872866,53.2580827 291.289786,60.1391655 292.802271,67.9480347 C294.662676,77.1316708 289.083877,83.4618804 285.604678,92.5343754 C282.16172,101.597206 279.694872,111.998562 283.659709,111.60232 C287.102666,111.235071 327.427551,77.3781141 336.475885,67.5856181 C340.938441,62.6929943 346.886905,50.1582129 338.416022,38.9498762 C331.049301,29.2129508 278.694602,24.8639518 268.517944,10.7925241 C259.532429,-1.64078066 236.29911,-0.986014706 229.50984,3.57318586 C223.177214,7.79413094 209.286995,19.4808576 195.783353,24.0642192 C182.250718,28.6910709 168.30976,30.9356376 150.0343,40.1820925 C131.783001,49.5276081 132.490922,60.3300382 130.558033,68.2428002 C128.567158,76.0999916 127.093331,97.3883415 112.171432,120.097364 C97.1553053,142.864374 105.87988,158.561844 113.232105,181.570464 C120.625403,204.528347 131.145148,215.6642 134.701663,218.411318 C138.221936,221.175348 145.151341,233.7657 144.252548,231.842476 C143.327177,229.844353 147.074565,218.128633 139.205293,203.714117" id="Fill-15" fill="#F0F1AC"></path>
                <path d="M324.437614,17.6757814 C355.728662,27.8403584 362.679812,54.8355613 351.821811,67.1915505 C345.798448,74.0798816 338.936694,78.1824373 323.190901,87.9362755 C307.464438,97.675617 301.269531,102.783275 296.260933,106.542743 C291.288578,110.418184 288.476225,115.769869 299.392213,112.885033 C300.508456,112.602348 366.777535,98.3183024 375.345063,93.8388335 C389.754746,86.3633875 393.845221,81.1035149 396.140526,71.3931667 C398.334355,61.6441607 383.499436,45.5866902 376.514461,37.6014449 C362.443033,21.4086721 328.75762,4.53938846 327.237886,4.36784461 C310.286455,-1.28827013 289.476495,3.37240707 272.602379,4.2059652 C270.763719,4.29536129 271.420901,7.06664007 272.411506,7.79388933 C287.478372,18.4030307 305.927792,13.338863 324.437614,17.6757814" id="Fill-19" fill="#FF9298"></path>
                <path d="M324.437614,17.6757814 C355.728662,27.8403584 362.679812,54.8355613 351.821811,67.1915505 C345.798448,74.0798816 338.936694,78.1824373 323.190901,87.9362755 C307.464438,97.675617 301.269531,102.783275 296.260933,106.542743 C291.288578,110.418184 288.476225,115.769869 299.392213,112.885033 C300.508456,112.602348 366.777535,98.3183024 375.345063,93.8388335 C389.754746,86.3633875 393.845221,81.1035149 396.140526,71.3931667 C398.334355,61.6441607 383.499436,45.5866902 376.514461,37.6014449 C362.443033,21.4086721 328.75762,4.53938846 327.237886,4.36784461 C310.286455,-1.28827013 289.476495,3.37240707 272.602379,4.2059652 C270.763719,4.29536129 271.420901,7.06664007 272.411506,7.79388933 C287.478372,18.4030307 305.927792,13.338863 324.437614,17.6757814 Z" id="Stroke-21" stroke="#FF9298" stroke-width="0.467"></path>
                <path d="M443.744911,241.014998 C435.94329,241.372582 428.392944,242.351107 421.31374,243.561579 C426.607439,240.679159 430.04798,236.76506 434.959933,231.814449 C456.028416,210.762878 459.29983,188.464594 460.370167,179.232636 C464.332588,199.228367 452.918882,227.939008 443.744911,241.014998 M412.961246,230.212568 C408.844194,234.078345 400.421633,238.630297 394.717196,241.459562 C404.794793,232.123711 414.116147,220.497388 416.776285,206.87294 C419.43159,192.982721 415.05843,179.157736 407.856005,163.600401 C406.469157,160.628585 380.962279,123.038737 378.717712,120.86907 C382.974899,121.572158 415.722861,144.853799 424.333879,164.01114 C441.077525,192.842586 418.02783,225.532562 412.961246,230.212568 M366.57434,207.578445 C358.736478,240.282917 332.195504,264.100934 325.754153,269.486445 C325.82422,269.223088 325.891871,268.957316 325.923281,268.689128 C325.949858,268.459598 325.853214,268.242148 325.698582,268.02953 C329.607849,260.529923 340.731622,239.123184 342.679007,234.670292 C344.884916,229.567466 365.844675,178.213037 355.590702,138.443858 C360.645205,154.588308 370.708305,190.093053 366.57434,207.578445 M283.907119,239.152177 C294.489683,232.962102 325.461804,184.497341 326.573214,187.058418 C327.653216,189.602582 329.395232,203.069982 326.007845,212.468652 C321.52596,224.836722 283.907119,239.152177 283.907119,239.152177 M445.578738,106.133212 C444.213636,38.5860099 376.393414,29.0858633 379.502948,30.9680134 C392.264844,38.762386 405.304592,54.0128756 407.754528,62.8316791 C412.137353,78.7514313 398.69653,96.1619238 378.964155,102.740993 C369.550989,105.874688 317.486223,117.27873 310.525408,124.287866 C303.46795,131.26801 317.867968,168.118527 308.6795,182.989688 C299.447542,197.901922 247.646132,223.437794 241.540621,230.676461 C235.37229,237.857142 228.824631,235.711635 226.609058,235.501434 C224.456303,235.252574 226.181406,238.144659 232.547857,239.43003 C238.923973,240.761306 249.852041,237.006671 256.208828,233.551633 C262.558366,229.983037 271.444821,237.550296 271.043746,242.387349 C270.558108,247.154335 264.592731,248.642659 252.922917,255.944145 C249.905195,257.852872 245.099551,257.408308 239.909746,255.760521 C239.709209,255.852333 239.513504,255.948977 239.28639,256.016628 C233.929872,257.625758 228.624094,259.275961 223.637242,261.820126 C223.637242,261.820126 208.374671,277.764039 210.413869,278.735316 C225.828654,286.085124 245.691499,271.484568 271.232203,263.463081 C291.83921,256.990321 311.124604,253.259846 309.844065,254.168304 C308.720574,254.960788 295.695322,261.259588 278.81879,269.546847 C272.399184,271.387924 250.528552,284.811834 251.011774,285.33613 C244.734719,289.789021 237.104642,294.350638 224.492545,299.146617 C200.116406,308.412401 194.407136,297.49883 166.107234,323.728126 C161.796893,327.724373 158.291116,331.440351 155.430441,335.501832 C151.115268,341.624257 145.669355,350.00816 149.849226,353.190178 C158.334606,359.641193 164.957165,333.713911 172.686303,331.186659 C183.462156,327.661554 168.090861,347.819164 175.397179,343.279292 C184.153163,337.840627 177.023221,329.282764 193.762035,320.181276 C211.14595,310.729451 223.572007,314.41402 237.049071,313.167307 C248.774456,312.084889 253.386811,312.026903 265.991659,303.71065 C266.124545,303.621254 266.26468,303.53669 266.399982,303.447294 C277.50201,297.539904 295.378811,291.782312 300.662845,290.475197 C306.741779,288.936134 303.881104,292.739092 296.65935,295.26876 C261.113532,307.709313 275.76241,312.993347 301.133987,303.309576 C321.651597,292.226877 353.522511,288.600295 375.325493,280.315452 C403.42969,269.628995 419.835081,248.715142 448.893642,239.710298 C459.311911,233.312438 480.491536,215.655502 483.799191,193.415205 C488.476781,161.471807 446.173102,135.182109 445.578738,106.133212" id="Fill-23" fill="#F0F1AC"></path>
                <path d="M394.717196,241.458596 C404.794793,232.127577 414.116147,220.496421 416.776285,206.87439 C419.43159,192.984171 415.05843,179.159186 407.853589,163.599434 C406.469157,160.630034 380.962279,123.037771 378.717712,120.87052 C382.974899,121.573608 415.722861,144.855249 424.333879,164.010173 C441.075108,192.84162 418.02783,225.531595 412.961246,230.214018 C408.844194,234.077378 400.421633,238.629331 394.717196,241.458596" id="Fill-27" fill="#FFFFFD"></path>
                <polygon id="Fill-29" fill="#FFFFFD" points="278.802844 244.69111 279.000965 244.507486 279.201502 244.326278 279.406871 244.142653 279.607408 243.961445 279.815194 243.782653 280.022979 243.603861 280.230765 243.425068 280.43855 243.248692 280.648752 243.072316 280.86137 242.900772 280.924189 242.847618 280.967679 242.76547 281.175464 242.366812 281.388082 241.97057 281.605532 241.576744 281.822982 241.185334 282.042848 240.79634 282.262714 240.409762 282.48258 240.020769 282.704862 239.636607 282.931976 239.257278 283.156675 238.875532 283.383789 238.498619 283.61332 238.124122 283.845266 237.749625 284.079629 237.37996 284.313992 237.007879 284.548354 236.64063 284.787549 236.275797 285.026744 235.910965 285.268355 235.548548 285.50755 235.188548 285.753994 234.828547 285.998021 234.473379 286.244464 234.118211 286.493323 233.765458 286.742183 233.415122 286.993458 233.064786 287.244734 232.716867 287.500841 232.368947 287.754533 232.025859 288.013057 231.680355 288.269165 231.339684 288.527688 231.001428 288.788628 230.660756 289.049568 230.324917 289.31534 229.989078 289.57628 229.655654 289.842053 229.324647 290.112657 228.991224 290.378429 228.660217 290.649034 228.331626 290.922054 228.007867 291.192658 227.681692 291.465679 227.355517 291.738699 227.034175 292.016552 226.715248 292.294405 226.393905 292.569841 226.072563 292.85011 225.756052 293.132795 225.439542 293.413064 225.123031 293.695749 224.808937 293.98085 224.497258 294.265951 224.18558 294.553468 223.873902 294.838569 223.56464 295.126086 223.255378 295.41602 222.948532 295.705953 222.63927 295.998302 222.33484 296.290652 222.03041 296.583001 221.72598 296.880183 221.42155 297.174948 221.121952 297.47213 220.819938 297.771727 220.520341 298.068909 220.220743 298.368507 219.921145 298.67052 219.623964 298.970118 219.326782 299.274548 219.032016 299.576562 218.737251 299.880992 218.442486 300.185422 218.14772 300.489852 217.852955 300.796698 217.560605 301.103544 217.268256 301.41039 216.975906 301.719652 216.683557 302.03133 216.393624 302.343008 216.106107 302.654687 215.816173 302.966365 215.528656 303.280459 215.238723 303.592138 214.94879 303.908648 214.661273 304.222742 214.376172 304.539253 214.088654 304.855763 213.801137 305.17469 213.518452 305.493617 213.230935 305.812543 212.943418 306.44798 212.375632 307.090666 211.80543 307.738183 211.235228 308.383285 210.669858 309.035635 210.102072 309.685568 209.534286 310.340334 208.9665 310.9951 208.398714 311.654698 207.830928 312.31188 207.263142 313.635909 206.122738 314.967186 204.979918 316.303295 203.832265 316.972558 203.257231 317.644236 202.677364 317.784371 202.556559 317.98974 202.375351 318.569607 201.863135 319.345178 201.174544 320.289877 200.345818 320.811757 199.886757 321.360214 199.403535 321.935249 198.898567 322.527196 198.38152 323.136056 197.849976 323.752164 197.316015 324.377936 196.77239 325.003709 196.231181 325.631898 195.694805 326.250422 195.165677 326.554852 194.907153 326.856866 194.651045 327.154047 194.39977 327.448813 194.15091 327.738746 193.906883 327.878881 193.793326 328.021431 193.67252 328.299284 193.440574 328.572304 193.215876 328.838076 193.000842 329.091768 192.79064 329.34546 192.590103 329.587071 192.394398 329.819017 192.210774 330.038883 192.036814 330.253917 191.872518 330.456871 191.717887 330.650159 191.575336 330.831368 191.440034 330.918348 191.377215 331.000495 191.316813 331.082643 191.263658 331.162375 191.208088 331.237274 191.159765 331.309758 191.109027 331.382241 191.063121 331.449892 191.022047 331.515127 190.983389 331.585194 190.947148 331.648013 190.910906 331.710832 190.881913 331.780899 190.850503 331.850966 190.82151 331.92345 190.797349 331.97902 190.782852 332.029758 190.775604 332.090161 190.765939 332.157812 190.763523 332.237544 190.763523 332.329356 190.780436 332.438081 190.809429 332.554054 190.867416 332.667612 190.949564 332.747343 191.03896 332.798082 191.116275 332.831907 191.171846 332.863317 191.227417 332.89231 191.282987 332.916471 191.338558 332.940632 191.394128 332.962377 191.452115 332.981706 191.507685 333.001035 191.565672 333.013115 191.623659 333.030028 191.681645 333.042109 191.739632 333.056605 191.797619 333.06627 191.858021 333.07835 191.918424 333.088015 191.978827 333.095263 192.03923 333.102512 192.099632 333.10976 192.164867 333.114592 192.227686 333.119424 192.292921 333.12184 192.358156 333.129089 192.488626 333.133921 192.621512 333.133921 192.759231 333.133921 192.896949 333.131505 193.041916 333.126673 193.189298 333.119424 193.336681 333.114592 193.48648 333.102512 193.638695 333.090431 193.795742 333.07835 193.950373 333.061438 194.109836 333.044525 194.2693 333.025196 194.431179 333.010699 194.595475 332.988954 194.757354 332.967209 194.924066 332.945464 195.090777 332.921303 195.255073 332.897142 195.419368 332.872981 195.590912 332.819827 195.919503 332.769088 196.25051 332.713518 196.576685 332.657947 196.900444 332.602377 197.214538 332.546806 197.521384 332.440497 198.098835 332.343853 198.618299 332.302779 198.852661 332.261705 199.067695 332.22788 199.260984 332.198886 199.432528 332.177141 199.572662 332.169893 199.630649 332.162645 199.68622 332.143316 199.843267 332.121571 200.00273 332.104658 200.162193 332.082913 200.324073 332.058752 200.48112 332.037007 200.640583 332.01043 200.79763 331.988685 200.954678 331.962107 201.114141 331.937946 201.266356 331.908953 201.423403 331.884792 201.578034 331.855799 201.735081 331.826805 201.887296 331.800228 202.044343 331.771235 202.196558 331.739825 202.348773 331.708416 202.500988 331.679422 202.653203 331.645597 202.803002 331.611771 202.955217 331.580362 203.1026 331.54412 203.254815 331.510295 203.402197 331.476469 203.54958 331.440228 203.699379 331.403986 203.846762 331.365328 203.991728 331.329086 204.139111 331.290429 204.284078 331.251771 204.431461 331.210697 204.576427 331.172039 204.721394 331.128549 204.86636 331.089891 205.006495 331.046401 205.151462 331.002912 205.291596 330.961838 205.436563 330.915932 205.579113 330.872442 205.716831 330.826535 205.859382 330.780629 205.999516 330.734723 206.139651 330.688817 206.279785 330.638079 206.417503 330.592173 206.555222 330.543851 206.690524 330.495528 206.828242 330.44479 206.965961 330.394052 207.101263 330.343313 207.238981 330.290159 207.374283 330.239421 207.509585 330.186266 207.642471 330.130696 207.777774 330.079957 207.91066 330.021971 208.043546 329.968816 208.176432 329.913246 208.306902 329.857675 208.439788 329.799688 208.570258 329.744118 208.700728 329.686131 208.831198 329.625729 208.961668 329.567742 209.092138 329.507339 209.217776 329.449352 209.348245 329.38895 209.476299 329.326131 209.604353 329.265728 209.729991 329.202909 209.858045 329.14009 209.983683 329.077271 210.10932 329.012036 210.234958 328.883983 210.483817 328.753513 210.730261 328.61821 210.976704 328.482908 211.220731 328.34519 211.462342 328.205056 211.703953 328.064921 211.940732 327.919954 212.179927 327.777404 212.416706 327.627605 212.648652 327.477806 212.880599 327.328007 213.112546 327.175792 213.33966 327.018745 213.569191 326.861698 213.796305 326.702235 214.018587 326.542771 214.238453 326.378476 214.463151 326.21418 214.680601 326.049885 214.900467 325.880757 215.117917 325.709213 215.332951 325.540086 215.545569 325.366126 215.755771 325.192166 215.965972 325.01579 216.176174 324.839414 216.383959 324.658205 216.589329 324.476997 216.794698 324.293373 217.000068 324.109748 217.200605 323.923708 217.401142 323.735251 217.599263 323.546794 217.7998 323.353506 217.995505 323.162633 218.19121 322.969344 218.384499 322.773639 218.575372 322.577934 218.76866 322.379813 218.959533 322.179276 219.14799 321.978739 219.336446 321.775785 219.520071 321.572832 219.706111 321.367463 219.889736 321.162093 220.07336 320.954308 220.254568 320.744106 220.435777 320.536321 220.614569 320.326119 220.790945 320.113501 220.969737 319.900884 221.146113 319.683434 221.320073 319.465984 221.494033 319.25095 221.667993 319.031084 221.839537 318.811218 222.008665 318.591352 222.180209 318.36907 222.34692 318.144371 222.516048 317.919673 222.682759 317.694975 222.847055 317.470276 223.011351 317.243162 223.175646 317.013632 223.337525 316.786517 223.499405 316.554571 223.661284 316.322624 223.820748 316.093093 223.982627 315.858731 224.139674 315.624368 224.299137 315.390005 224.453769 315.153226 224.6084 314.916448 224.765447 314.682085 224.917662 314.440474 225.072293 314.201279 225.224508 313.962084 225.379139 313.722889 225.528938 313.481278 225.681153 313.237251 225.828535 312.993224 225.98075 312.751613 226.125717 312.505169 226.275516 312.261142 226.420482 312.014699 226.570281 311.770672 226.717664 311.521812 226.860215 311.272953 227.007597 311.02651 227.150148 310.775234 227.295114 310.526375 227.437665 310.277515 227.580216 310.02624 227.722766 309.774964 227.8629 309.526105 228.005451 309.269997 228.143169 308.76503 228.425854 308.257647 228.703707 307.747848 228.979144 307.240464 229.252164 306.728249 229.527601 306.213618 229.795789 305.698986 230.066393 305.184354 230.339414 304.667307 230.605186 304.147843 230.873374 303.628379 231.141562 303.113748 231.404918 302.594284 231.670691 301.555356 232.199819 300.516429 232.726531 299.479917 233.255659 299.129581 233.432035 298.443406 233.782371 297.926358 234.048143 297.411727 234.311499 296.894679 234.577272 296.382464 234.843044 295.867832 235.108816 295.360449 235.37942 294.85065 235.647609 294.343267 235.913381 293.835883 236.183985 293.330916 236.459422 292.828365 236.730026 292.330646 237.003047 291.832928 237.283315 291.584068 237.418618 291.335209 237.558752 291.088766 237.69647 290.842322 237.839021 290.598295 237.979155 290.351852 238.11929 290.110241 238.26184 289.866214 238.401975 289.624603 238.546941 289.382992 238.689492 289.141381 238.832042 288.902186 238.977009 288.660575 239.119559 288.42138 239.266942 288.187017 239.411909 287.947822 239.559292 287.713459 239.706674 287.47668 239.851641 287.242318 240.00144 287.007955 240.151239 286.776008 240.301037 286.546478 240.450836 286.312115 240.603051 286.085001 240.75285 285.85547 240.907481 285.628356 241.059696 285.401241 241.211911 285.178959 241.366542 284.951845 241.521173 284.727147 241.67822 284.504864 241.832852 284.284998 241.994731 284.065132 242.151778 283.845266 242.311241 283.627816 242.470705 283.412782 242.630168 283.195333 242.794464 282.980299 242.953927 282.770097 243.120638 282.557479 243.284934 282.347278 243.449229 282.137076 243.615941 281.996942 243.727082 281.963116 243.797149 281.880968 243.82131 281.721505 243.949364 281.516136 244.120908 281.310766 244.290036 281.107813 244.46158 280.907276 244.63554 280.706739 244.8095 280.508618 244.981044 280.310497 245.155003 280.114792 245.33138 279.921503 245.510172 279.725798 245.688964 278.764186 245.650306"></polygon>
                <path d="M355.641923,138.606462 C355.641923,138.606462 410.654344,165.630658 394.25137,211.396624 C371.29832,275.442882 305.952194,300.940096 305.952194,300.940096" id="Stroke-31" stroke="#FFFFFF" stroke-width="1.4"></path>
                <path d="M191.499589,39.0670575 C191.499589,39.0670575 192.103617,27.5905325 216.86875,24.5703944 C241.633882,21.5502562 263.345052,17.0079684 278.764669,30.7580534 C294.184286,44.5033062 305.056784,40.8791404 312.305115,47.5234444 C319.553447,54.1677483 312.278538,70.4764944 305.950745,80.1409365 C299.620535,89.8053786 283.906152,108.530235 283.906152,108.530235" id="Stroke-33" stroke="#FFFFFF" stroke-width="1.4"></path>
            </g>
        </g>
    </g>
</svg>