<svg xmlns="http://www.w3.org/2000/svg" width="87.699" height="23.177" viewBox="0 0 87.699 23.177">
  <g id="Group_5" data-name="Group 5" transform="translate(-105.555 -324.134)">
    <path id="Path_7" data-name="Path 7" d="M118.852,343.069h-8.846V324.821q-.03-.686-.666-.687h-3.09a.656.656,0,0,0-.515.2.7.7,0,0,0-.182.484v21.8a.6.6,0,0,0,.667.686h12.631a.615.615,0,0,0,.666-.686v-2.839a.7.7,0,0,0-.2-.53A.657.657,0,0,0,118.852,343.069Z" fill="#1a1818"/>
    <path id="Path_8" data-name="Path 8" d="M193.175,346.656l-8.541-21.9a.77.77,0,0,0-.757-.593h-2.545a.842.842,0,0,0-.757.593l-8.541,21.9q-.274.655.393.656h3.333a.764.764,0,0,0,.756-.562l1.424-3.744h9.3l1.454,3.744a.765.765,0,0,0,.758.562h3.3a.525.525,0,0,0,.438-.172C193.281,347.025,193.275,346.864,193.175,346.656Zm-13.812-7.673,3.241-8.827,3.179,8.827Z" fill="#1a1818"/>
    <path id="Path_9" data-name="Path 9" d="M168.157,327.5a11.973,11.973,0,0,0-3.635-2.448,10.415,10.415,0,0,0-4.2-.889H148.484v.064h-2.662a.873.873,0,0,0-.829.622l-4.759,15.23-4.9-15.3a.873.873,0,0,0-.827-.616h-2.391a.873.873,0,0,0-.826.616l-4.9,15.3-4.759-15.23a.874.874,0,0,0-.83-.622H117.9a.838.838,0,0,0-.823,1.19l7.154,21.288a.873.873,0,0,0,.823.6h2.464a.874.874,0,0,0,.825-.607l4.906-14.778,4.906,14.778a.874.874,0,0,0,.824.607h2.464a.873.873,0,0,0,.823-.6l6.221-18.512v.181h3.426v18.311a.544.544,0,0,0,.606.624h7.932a11.6,11.6,0,0,0,4.407-1.029,11.884,11.884,0,0,0,3.574-2.5,11.442,11.442,0,0,0,3.256-8.048,10.835,10.835,0,0,0-.97-4.554A12.2,12.2,0,0,0,168.157,327.5Zm-1.485,11.105a7.455,7.455,0,0,1-1.528,2.34,7.071,7.071,0,0,1-2.318,1.575,7.27,7.27,0,0,1-2.892.577h-3.571V328.376h3.571a7.271,7.271,0,0,1,2.892.578,7.084,7.084,0,0,1,2.318,1.575,7.456,7.456,0,0,1,1.528,2.34,7.621,7.621,0,0,1,0,5.74Z" fill="#1a1818"/>
  </g>
</svg>
